<?xml version="1.0" encoding="UTF-8"?>
<svg width="150" height="150" viewBox="0 0 150 150" xmlns="http://www.w3.org/2000/svg">
    <!-- Background -->
    <circle cx="75" cy="75" r="75" fill="#F7FAFC"/>
    
    <!-- Elegant Pattern -->
    <path d="M20 20 Q75 30 130 20 Q120 75 130 130 Q75 120 20 130 Q30 75 20 20" 
          fill="#E2E8F0" opacity="0.5"/>
    
    <!-- Professional Silhouette -->
    <circle cx="75" cy="60" r="25" fill="#2C5282"/>
    <path d="M40 140 Q75 110 110 140" fill="#2C5282"/>
    
    <!-- Professional Attire -->
    <path d="M60 85 L90 85 L95 140 L55 140 Z" fill="#4299E1"/>
    <rect x="65" y="75" width="20" height="10" fill="#4299E1"/>
    
    <!-- Advisor Details -->
    <circle cx="75" cy="55" r="3" fill="#63B3ED"/>
    <path d="M65 65 Q75 70 85 65" stroke="#63B3ED" fill="none" stroke-width="1.5"/>
    
    <!-- Wisdom Symbol -->
    <circle cx="75" cy="115" r="10" fill="none" stroke="#63B3ED" stroke-width="1.5"/>
    <path d="M70 115 L80 115 M75 110 L75 120" stroke="#63B3ED" stroke-width="1.5"/>
    <path d="M67 108 Q75 105 83 108" stroke="#63B3ED" stroke-width="1.5" fill="none"/>
    
    <!-- Book Symbol -->
    <path d="M65 122 L85 122" stroke="#63B3ED" stroke-width="1.5"/>
    <path d="M65 125 L85 125" stroke="#63B3ED" stroke-width="1.5"/>
    <path d="M65 128 L85 128" stroke="#63B3ED" stroke-width="1.5"/>
</svg>
 