<?xml version="1.0" encoding="UTF-8"?>
<svg width="150" height="150" viewBox="0 0 150 150" xmlns="http://www.w3.org/2000/svg">
    <!-- Background -->
    <circle cx="75" cy="75" r="75" fill="#F7FAFC"/>
    
    <!-- Elegant Pattern -->
    <path d="M0 75 C30 95, 120 95, 150 75" fill="none" stroke="#E2E8F0" stroke-width="1"/>
    <path d="M0 65 C30 85, 120 85, 150 65" fill="none" stroke="#E2E8F0" stroke-width="1"/>
    <path d="M0 85 C30 105, 120 105, 150 85" fill="none" stroke="#E2E8F0" stroke-width="1"/>
    
    <!-- Professional Silhouette -->
    <circle cx="75" cy="55" r="25" fill="#2C5282"/>
    <path d="M45 140 C45 90 105 90 105 140" fill="#2C5282"/>
    
    <!-- Lab Coat -->
    <path d="M40 95 C40 85 110 85 110 95" fill="#FFFFFF" stroke="#4299E1" stroke-width="1"/>
    <path d="M45 95 L45 140" stroke="#4299E1" stroke-width="1"/>
    <path d="M105 95 L105 140" stroke="#4299E1" stroke-width="1"/>
    
    <!-- Glasses -->
    <rect x="60" y="50" width="30" height="8" rx="4" fill="none" stroke="#4299E1" stroke-width="1.5"/>
    
    <!-- Professional Details -->
    <line x1="65" y1="110" x2="85" y2="110" stroke="#4299E1" stroke-width="1"/>
    <line x1="60" y1="120" x2="90" y2="120" stroke="#4299E1" stroke-width="1"/>
</svg> 